<?xml version="1.0" encoding="UTF-8"?>
<!DOCTYPE svg PUBLIC "-//W3C//DTD SVG 1.1//EN" "http://www.w3.org/Graphics/SVG/1.1/DTD/svg11.dtd">
<svg xmlns="http://www.w3.org/2000/svg" version="1.1" width="200px" height="200px" style="shape-rendering:geometricPrecision; text-rendering:geometricPrecision; image-rendering:optimizeQuality; fill-rule:evenodd; clip-rule:evenodd" xmlns:xlink="http://www.w3.org/1999/xlink">
<g><path style="opacity:1" fill="#fdfefe" d="M -0.5,-0.5 C 66.1667,-0.5 132.833,-0.5 199.5,-0.5C 199.5,66.1667 199.5,132.833 199.5,199.5C 132.833,199.5 66.1667,199.5 -0.5,199.5C -0.5,132.833 -0.5,66.1667 -0.5,-0.5 Z"/></g>
<g><path style="opacity:1" fill="#f8f9f9" d="M 100.5,45.5 C 103.112,46.2775 104.945,47.9441 106,50.5C 108.999,55.498 111.166,60.8314 112.5,66.5C 112.167,67.1667 111.833,67.8333 111.5,68.5C 107.395,69.3887 103.729,71.0554 100.5,73.5C 95.4379,72.0349 90.4379,70.3682 85.5,68.5C 86.4169,59.9123 89.7503,52.4123 95.5,46C 97.1341,45.5065 98.8008,45.3398 100.5,45.5 Z"/></g>
<g><path style="opacity:1" fill="#555d69" d="M 84.5,41.5 C 85.552,41.3505 86.552,41.5172 87.5,42C 85.5951,43.8153 83.9284,45.8153 82.5,48C 75.5014,50.4995 69.5014,54.4995 64.5,60C 62.0982,60.8141 59.7649,60.6474 57.5,59.5C 65.048,51.2326 74.048,45.2326 84.5,41.5 Z"/></g>
<g><path style="opacity:1" fill="#20242b" d="M 111.5,43.5 C 112.601,42.4017 113.934,42.235 115.5,43C 125.35,46.3767 133.684,51.8767 140.5,59.5C 138.235,60.6474 135.902,60.8141 133.5,60C 128.314,54.9063 122.314,51.073 115.5,48.5C 114.113,46.79 112.779,45.1233 111.5,43.5 Z"/></g>
<g><path style="opacity:1" fill="#3b434f" d="M 103.5,40.5 C 101.148,41.566 98.8144,42.7327 96.5,44C 98.0581,44.21 99.3915,44.71 100.5,45.5C 98.8008,45.3398 97.1341,45.5065 95.5,46C 89.7503,52.4123 86.4169,59.9123 85.5,68.5C 84.8423,67.6016 84.1757,66.6016 83.5,65.5C 82.4728,66.7914 81.4728,66.7914 80.5,65.5C 81.8612,57.9191 84.6945,50.9191 89,44.5C 92.9858,39.6818 97.8191,38.3485 103.5,40.5 Z"/></g>
<g><path style="opacity:1" fill="#29313c" d="M 103.5,40.5 C 106.449,41.6141 108.615,43.6141 110,46.5C 113.628,52.4171 116.128,58.7504 117.5,65.5C 124.744,63.8018 132.077,63.3018 139.5,64C 138.707,65.0852 138.04,66.2519 137.5,67.5C 131.437,68.2616 125.437,69.2616 119.5,70.5C 120.653,75.7696 121.487,81.103 122,86.5C 124.191,87.8334 126.024,89.5 127.5,91.5C 123.836,91.7974 120.67,90.7974 118,88.5C 117.505,90.4727 117.338,92.4727 117.5,94.5C 117.81,97.7131 117.477,100.713 116.5,103.5C 116.666,98.8215 116.499,94.1548 116,89.5C 113.674,87.9343 111.508,86.2676 109.5,84.5C 110.097,84.2648 110.43,83.7648 110.5,83C 109.586,81.5936 108.92,80.0936 108.5,78.5C 110.555,79.9477 112.722,81.281 115,82.5C 116.794,72.9752 113.627,70.9752 105.5,76.5C 104.341,74.7497 102.674,73.7497 100.5,73.5C 103.729,71.0554 107.395,69.3887 111.5,68.5C 111.833,67.8333 112.167,67.1667 112.5,66.5C 111.166,60.8314 108.999,55.498 106,50.5C 104.945,47.9441 103.112,46.2775 100.5,45.5C 99.3915,44.71 98.0581,44.21 96.5,44C 98.8144,42.7327 101.148,41.566 103.5,40.5 Z"/></g>
<g><path style="opacity:1" fill="#fafafa" d="M 76.5,84.5 C 76.4894,86.0174 75.8228,87.1841 74.5,88C 71.5767,90.0455 68.7433,92.2121 66,94.5C 59.2342,89.2838 54.7342,82.6171 52.5,74.5C 52.178,72.2776 52.8446,70.4443 54.5,69C 62.8127,67.8297 70.8127,68.8297 78.5,72C 76.8968,75.983 76.2302,80.1496 76.5,84.5 Z"/></g>
<g><path style="opacity:1" fill="#1f252d" d="M 80.5,65.5 C 81.4728,66.7914 82.4728,66.7914 83.5,65.5C 84.1757,66.6016 84.8423,67.6016 85.5,68.5C 90.4379,70.3682 95.4379,72.0349 100.5,73.5C 102.674,73.7497 104.341,74.7497 105.5,76.5C 106.29,77.4013 107.29,78.0679 108.5,78.5C 108.92,80.0936 109.586,81.5936 110.5,83C 110.43,83.7648 110.097,84.2648 109.5,84.5C 106.996,83.4161 104.663,82.0828 102.5,80.5C 99.696,75.5683 96.0294,74.5683 91.5,77.5C 89.9,75.5417 87.7334,74.2084 85,73.5C 84.228,73.6448 83.5613,73.9781 83,74.5C 82.8091,76.7078 82.3091,78.7078 81.5,80.5C 81.5654,80.0618 81.3988,79.7284 81,79.5C 78.5537,80.4445 77.0537,82.1112 76.5,84.5C 76.2302,80.1496 76.8968,75.983 78.5,72C 70.8127,68.8297 62.8127,67.8297 54.5,69C 52.8446,70.4443 52.178,72.2776 52.5,74.5C 51.2209,73.032 49.5542,72.3653 47.5,72.5C 47.5,73.8333 47.5,75.1667 47.5,76.5C 45.4451,70.4257 47.4451,65.9257 53.5,63C 57.5,62.3333 61.5,62.3333 65.5,63C 70.4352,64.267 75.4352,65.1003 80.5,65.5 Z"/></g>
<g><path style="opacity:1" fill="#252d37" d="M 143.5,62.5 C 150.983,62.4808 154.483,66.1475 154,73.5C 149.333,80.1667 144.667,80.1667 140,73.5C 138.662,68.9597 139.829,65.293 143.5,62.5 Z"/></g>
<g><path style="opacity:1" fill="#eeeff0" d="M 143.5,65.5 C 144.833,65.5 146.167,65.5 147.5,65.5C 147.349,69.314 145.349,70.9807 141.5,70.5C 141.392,68.4862 142.058,66.8195 143.5,65.5 Z"/></g>
<g><path style="opacity:1" fill="#ebeded" d="M 91.5,77.5 C 88.3933,78.8887 85.3933,80.5554 82.5,82.5C 81.7025,82.0431 81.3691,81.3764 81.5,80.5C 82.3091,78.7078 82.8091,76.7078 83,74.5C 83.5613,73.9781 84.228,73.6448 85,73.5C 87.7334,74.2084 89.9,75.5417 91.5,77.5 Z"/></g>
<g><path style="opacity:1" fill="#e9eaeb" d="M 108.5,78.5 C 107.29,78.0679 106.29,77.4013 105.5,76.5C 113.627,70.9752 116.794,72.9752 115,82.5C 112.722,81.281 110.555,79.9477 108.5,78.5 Z"/></g>
<g><path style="opacity:1" fill="#0c0d0f" d="M 52.5,74.5 C 54.7342,82.6171 59.2342,89.2838 66,94.5C 68.7433,92.2121 71.5767,90.0455 74.5,88C 75.8228,87.1841 76.4894,86.0174 76.5,84.5C 77.0537,82.1112 78.5537,80.4445 81,79.5C 81.3988,79.7284 81.5654,80.0618 81.5,80.5C 81.3691,81.3764 81.7025,82.0431 82.5,82.5C 85.3933,80.5554 88.3933,78.8887 91.5,77.5C 96.0294,74.5683 99.696,75.5683 102.5,80.5C 100.863,79.7822 99.1966,79.6155 97.5,80C 91.8428,82.4934 86.5095,85.4934 81.5,89C 80.5562,91.7191 80.2229,94.5525 80.5,97.5C 78.8868,97.9443 77.7202,98.9443 77,100.5C 76.8142,98.0995 76.3142,95.7662 75.5,93.5C 74.8933,93.6236 74.56,93.9569 74.5,94.5C 69.7028,96.4552 69.3694,98.7886 73.5,101.5C 74.8715,103.477 74.5382,105.144 72.5,106.5C 69.9248,105.432 67.7581,103.765 66,101.5C 65.6174,102.056 65.1174,102.389 64.5,102.5C 62.5,102.5 61.5,101.5 61.5,99.5C 58.5711,95.3939 55.4044,91.3939 52,87.5C 49.9281,84.0288 48.4281,80.3621 47.5,76.5C 47.5,75.1667 47.5,73.8333 47.5,72.5C 49.5542,72.3653 51.2209,73.032 52.5,74.5 Z"/></g>
<g><path style="opacity:1" fill="#f3f4f4" d="M 102.5,80.5 C 104.663,82.0828 106.996,83.4161 109.5,84.5C 111.508,86.2676 113.674,87.9343 116,89.5C 116.499,94.1548 116.666,98.8215 116.5,103.5C 116.762,104.978 116.429,106.311 115.5,107.5C 110.644,111.357 105.311,114.357 99.5,116.5C 92.5528,114.61 86.3861,111.276 81,106.5C 80.502,103.518 80.3354,100.518 80.5,97.5C 80.2229,94.5525 80.5562,91.7191 81.5,89C 86.5095,85.4934 91.8428,82.4934 97.5,80C 99.1966,79.6155 100.863,79.7822 102.5,80.5 Z"/></g>
<g><path style="opacity:1" fill="#1e242b" d="M 44.5,80.5 C 45.7268,82.6325 46.7268,84.9658 47.5,87.5C 46.205,94.826 46.205,102.159 47.5,109.5C 47.2372,112.028 46.4039,114.361 45,116.5C 40.5813,104.507 40.4147,92.5067 44.5,80.5 Z"/></g>
<g><path style="opacity:1" fill="#eceded" d="M 74.5,94.5 C 75.6341,96.9664 75.8007,99.633 75,102.5C 74.6174,101.944 74.1174,101.611 73.5,101.5C 69.3694,98.7886 69.7028,96.4552 74.5,94.5 Z"/></g>
<g><path style="opacity:1" fill="#f5f6f6" d="M 103.5,96.5 C 103.975,99.3126 102.975,101.313 100.5,102.5C 95.6723,103.16 93.839,101.16 95,96.5C 97.8295,93.8987 100.663,93.8987 103.5,96.5 Z"/></g>
<g><path style="opacity:1" fill="#1b2129" d="M 146.5,111.5 C 144.817,111.619 143.15,111.952 141.5,112.5C 138.351,108.905 135.184,105.238 132,101.5C 131.292,102.381 130.458,103.047 129.5,103.5C 128.07,102.463 126.403,101.796 124.5,101.5C 128.409,98.301 127.742,95.9677 122.5,94.5C 121.794,93.4427 121.461,93.7761 121.5,95.5C 120.292,94.7659 118.959,94.4326 117.5,94.5C 117.338,92.4727 117.505,90.4727 118,88.5C 120.67,90.7974 123.836,91.7974 127.5,91.5C 129.14,92.7026 130.807,93.536 132.5,94C 136.918,90.2533 140.584,85.9199 143.5,81C 145.134,80.5065 146.801,80.3398 148.5,80.5C 147.648,83.2234 146.481,85.89 145,88.5C 141.929,91.6475 139.096,94.9809 136.5,98.5C 140.623,102.282 143.957,106.615 146.5,111.5 Z"/></g>
<g><path style="opacity:1" fill="#f2f3f3" d="M 122.5,94.5 C 127.742,95.9677 128.409,98.301 124.5,101.5C 124.167,101.5 123.833,101.5 123.5,101.5C 122.532,99.3926 122.198,97.0593 122.5,94.5 Z"/></g>
<g><path style="opacity:1" fill="#818285" d="M 122.5,94.5 C 122.198,97.0593 122.532,99.3926 123.5,101.5C 123.44,102.043 123.107,102.376 122.5,102.5C 121.526,100.257 121.192,97.924 121.5,95.5C 121.461,93.7761 121.794,93.4427 122.5,94.5 Z"/></g>
<g><path style="opacity:1" fill="#232830" d="M 152.5,80.5 C 154.511,82.667 155.678,85.3337 156,88.5C 157.283,98.0999 156.283,107.433 153,116.5C 151.953,114.238 150.787,112.071 149.5,110C 151.723,102.601 152.056,95.1011 150.5,87.5C 151.467,85.2383 152.134,82.905 152.5,80.5 Z"/></g>
<g><path style="opacity:1" fill="#2d3540" d="M 107.5,91.5 C 105.107,92.3527 103.774,94.0194 103.5,96.5C 100.663,93.8987 97.8295,93.8987 95,96.5C 93.839,101.16 95.6723,103.16 100.5,102.5C 97.3448,103.442 94.3448,104.776 91.5,106.5C 85.8492,100.38 86.1826,94.547 92.5,89C 95.7024,87.5167 99.0357,87.1834 102.5,88C 104.881,88.2233 106.547,89.39 107.5,91.5 Z"/></g>
<g><path style="opacity:1" fill="#e6e9eb" d="M 92.5,91.5 C 94.9732,91.9473 95.1399,92.9473 93,94.5C 92.5172,93.552 92.3505,92.552 92.5,91.5 Z"/></g>
<g><path style="opacity:1" fill="#1e242c" d="M 74.5,94.5 C 74.56,93.9569 74.8933,93.6236 75.5,93.5C 76.3142,95.7662 76.8142,98.0995 77,100.5C 77.7202,98.9443 78.8868,97.9443 80.5,97.5C 80.3354,100.518 80.502,103.518 81,106.5C 86.3861,111.276 92.5528,114.61 99.5,116.5C 96.6985,117.536 94.0318,118.87 91.5,120.5C 89.1727,118.041 86.3394,116.041 83,114.5C 82.3333,116.833 82.3333,119.167 83,121.5C 83.6708,122.252 84.5041,122.586 85.5,122.5C 82.4347,123.727 80.1013,125.893 78.5,129C 79.4158,129.278 80.0825,129.778 80.5,130.5C 76.3776,130.697 72.3776,131.53 68.5,133C 65.5,133.667 62.5,133.667 59.5,133C 60.87,131.559 61.87,129.892 62.5,128C 67.827,127.057 73.1603,126.223 78.5,125.5C 77.8755,121.006 77.2088,116.506 76.5,112C 75.4496,109.971 74.1162,108.137 72.5,106.5C 74.5382,105.144 74.8715,103.477 73.5,101.5C 74.1174,101.611 74.6174,101.944 75,102.5C 75.8007,99.633 75.6341,96.9664 74.5,94.5 Z"/></g>
<g><path style="opacity:1" fill="#0d0e0e" d="M 117.5,94.5 C 118.959,94.4326 120.292,94.7659 121.5,95.5C 121.192,97.924 121.526,100.257 122.5,102.5C 123.107,102.376 123.44,102.043 123.5,101.5C 123.833,101.5 124.167,101.5 124.5,101.5C 126.403,101.796 128.07,102.463 129.5,103.5C 127.163,105.666 124.663,107.666 122,109.5C 121.057,114.827 120.223,120.16 119.5,125.5C 124.825,126.498 130.158,127.498 135.5,128.5C 140.598,128.725 143.598,126.392 144.5,121.5C 143.779,118.395 142.779,115.395 141.5,112.5C 143.15,111.952 144.817,111.619 146.5,111.5C 148.225,115.008 149.559,118.674 150.5,122.5C 149.285,130.451 144.618,134.118 136.5,133.5C 130.723,133.145 125.056,132.145 119.5,130.5C 118.833,130.833 118.167,131.167 117.5,131.5C 115.753,138.327 112.92,144.66 109,150.5C 102.675,158 96.0088,158.333 89,151.5C 85.0596,144.952 82.2263,137.952 80.5,130.5C 80.0825,129.778 79.4158,129.278 78.5,129C 80.1013,125.893 82.4347,123.727 85.5,122.5C 87.4214,121.637 89.4214,120.971 91.5,120.5C 94.0318,118.87 96.6985,117.536 99.5,116.5C 105.311,114.357 110.644,111.357 115.5,107.5C 116.429,106.311 116.762,104.978 116.5,103.5C 117.477,100.713 117.81,97.7131 117.5,94.5 Z"/></g>
<g><path style="opacity:1" fill="#f6f6f6" d="M 141.5,112.5 C 142.779,115.395 143.779,118.395 144.5,121.5C 143.598,126.392 140.598,128.725 135.5,128.5C 130.158,127.498 124.825,126.498 119.5,125.5C 120.223,120.16 121.057,114.827 122,109.5C 124.663,107.666 127.163,105.666 129.5,103.5C 130.458,103.047 131.292,102.381 132,101.5C 135.184,105.238 138.351,108.905 141.5,112.5 Z"/></g>
<g><path style="opacity:1" fill="#181e26" d="M 107.5,91.5 C 110.307,96.7745 109.973,101.941 106.5,107C 101.262,110.456 96.2624,110.29 91.5,106.5C 94.3448,104.776 97.3448,103.442 100.5,102.5C 102.975,101.313 103.975,99.3126 103.5,96.5C 103.774,94.0194 105.107,92.3527 107.5,91.5 Z"/></g>
<g><path style="opacity:1" fill="#1d242d" d="M 61.5,99.5 C 61.5,101.5 62.5,102.5 64.5,102.5C 60.6854,106.785 57.3521,111.452 54.5,116.5C 52.9547,117.452 51.288,117.785 49.5,117.5C 51.5034,110.157 55.5034,104.157 61.5,99.5 Z"/></g>
<g><path style="opacity:1" fill="#eff0f1" d="M 91.5,120.5 C 89.4214,120.971 87.4214,121.637 85.5,122.5C 84.5041,122.586 83.6708,122.252 83,121.5C 82.3333,119.167 82.3333,116.833 83,114.5C 86.3394,116.041 89.1727,118.041 91.5,120.5 Z"/></g>
<g><path style="opacity:1" fill="#ededed" d="M 113.5,114.5 C 114.586,114.62 115.253,115.287 115.5,116.5C 114.844,118.453 114.511,120.453 114.5,122.5C 111.412,122.623 108.745,121.623 106.5,119.5C 109.077,118.057 111.41,116.39 113.5,114.5 Z"/></g>
<g><path style="opacity:1" fill="#171c23" d="M 50.5,119.5 C 58.357,120.165 61.1904,124.165 59,131.5C 54.1993,135.749 49.866,135.416 46,130.5C 44.3926,125.438 45.8926,121.772 50.5,119.5 Z"/></g>
<g><path style="opacity:1" fill="#d4d6d8" d="M 50.5,121.5 C 54.193,122.247 54.193,123.58 50.5,125.5C 47.8753,124.135 47.8753,122.802 50.5,121.5 Z"/></g>
<g><path style="opacity:1" fill="#f8f8f8" d="M 97.5,122.5 C 102.791,124.261 107.791,126.594 112.5,129.5C 110.79,137.422 107.123,144.255 101.5,150C 98.15,150.93 95.3167,150.097 93,147.5C 89.0204,141.395 86.5204,134.729 85.5,127.5C 89.8892,126.597 93.8892,124.931 97.5,122.5 Z"/></g>
<g><path style="opacity:1" fill="#181c21" d="M 58.5,137.5 C 60.6282,136.371 62.9615,136.204 65.5,137C 70.406,141.561 76.0727,144.895 82.5,147C 83.9284,149.185 85.5951,151.185 87.5,153C 76.2177,151.023 66.551,145.857 58.5,137.5 Z"/></g>
<g><path style="opacity:1" fill="#1d232a" d="M 132.5,136.5 C 134.857,136.337 137.19,136.503 139.5,137C 131.437,145.43 121.771,150.763 110.5,153C 112.414,151.587 113.747,149.753 114.5,147.5C 121.19,144.828 127.19,141.162 132.5,136.5 Z"/></g>
<g><path style="opacity:1" fill="#bdc3cd" d="M 86.5,163.5 C 96.545,163.205 106.545,163.705 116.5,165C 118.623,165.815 120.623,166.815 122.5,168C 119.138,169.915 115.471,170.915 111.5,171C 101.5,171.667 91.5,171.667 81.5,171C 79.3772,170.185 77.3772,169.185 75.5,168C 76.1667,167.333 76.8333,166.667 77.5,166C 80.6282,165.159 83.6282,164.325 86.5,163.5 Z"/></g>
</svg>
